<svg width="20" height="20" viewBox="0 0 20 20" fill="none" xmlns="http://www.w3.org/2000/svg">
<path fill-rule="evenodd" clip-rule="evenodd" d="M0 8.5C0 3.80557 3.80557 0 8.5 0C13.1944 0 17 3.80557 17 8.5C17 10.3205 16.4277 12.0073 15.4532 13.3904L18.8922 16.827C19.2831 17.2176 19.2831 17.8511 18.8922 18.2417L18.2444 18.8891C17.8539 19.2793 17.2212 19.2793 16.8307 18.8891L13.3915 15.4523C12.0082 16.4274 10.321 17 8.5 17C3.80557 17 0 13.1944 0 8.5ZM8.49996 14.5714C5.15218 14.5714 2.42854 11.8478 2.42854 8.5C2.42854 5.15221 5.15218 2.42857 8.49996 2.42857C11.8478 2.42857 14.5714 5.15221 14.5714 8.5C14.5714 11.8478 11.8478 14.5714 8.49996 14.5714Z" fill="#222222"/>
</svg>
